<?xml version="1.0" standalone="no"?><!DOCTYPE svg PUBLIC "-//W3C//DTD SVG 1.1//EN" "http://www.w3.org/Graphics/SVG/1.1/DTD/svg11.dtd"><svg xmlns:xlink="http://www.w3.org/1999/xlink" version="1.1" class="highcharts-root" style="font-family: &quot;Lucida Grande&quot;, &quot;Lucida Sans Unicode&quot;, Arial, Helvetica, sans-serif; font-size: 12px;" xmlns="http://www.w3.org/2000/svg" width="600" height="400" viewBox="0 0 600 400" aria-label="Interactive chart" aria-hidden="false"><desc aria-hidden="true">Created with Highcharts 10.2.0</desc><defs aria-hidden="true"><clipPath id="highcharts-6977d5j-32-"><rect x="0" y="0" width="520" height="265" fill="none"></rect></clipPath><clipPath id="highcharts-6977d5j-39-"><rect x="0" y="0" width="520" height="265" fill="none"></rect></clipPath></defs><rect fill="#ffffff" class="highcharts-background" x="0" y="0" width="600" height="400" rx="0" ry="0" aria-hidden="true"></rect><rect fill="none" class="highcharts-plot-background" x="70" y="61" width="520" height="265" aria-hidden="true"></rect><g class="highcharts-grid highcharts-xaxis-grid" data-z-index="1" aria-hidden="true"><path fill="none" stroke-dasharray="none" data-z-index="1" class="highcharts-grid-line" d="M 112.5 61 L 112.5 326" opacity="1"></path><path fill="none" stroke-dasharray="none" data-z-index="1" class="highcharts-grid-line" d="M 199.5 61 L 199.5 326" opacity="1"></path><path fill="none" stroke-dasharray="none" data-z-index="1" class="highcharts-grid-line" d="M 286.5 61 L 286.5 326" opacity="1"></path><path fill="none" stroke-dasharray="none" data-z-index="1" class="highcharts-grid-line" d="M 372.5 61 L 372.5 326" opacity="1"></path><path fill="none" stroke-dasharray="none" data-z-index="1" class="highcharts-grid-line" d="M 459.5 61 L 459.5 326" opacity="1"></path><path fill="none" stroke-dasharray="none" data-z-index="1" class="highcharts-grid-line" d="M 546.5 61 L 546.5 326" opacity="1"></path></g><g class="highcharts-grid highcharts-yaxis-grid" data-z-index="1" aria-hidden="true"><path fill="none" stroke="#e6e6e6" stroke-width="1" stroke-dasharray="none" data-z-index="1" class="highcharts-grid-line" d="M 70 326.5 L 590 326.5" opacity="1"></path><path fill="none" stroke="#e6e6e6" stroke-width="1" stroke-dasharray="none" data-z-index="1" class="highcharts-grid-line" d="M 70 260.5 L 590 260.5" opacity="1"></path><path fill="none" stroke="#e6e6e6" stroke-width="1" stroke-dasharray="none" data-z-index="1" class="highcharts-grid-line" d="M 70 194.5 L 590 194.5" opacity="1"></path><path fill="none" stroke="#e6e6e6" stroke-width="1" stroke-dasharray="none" data-z-index="1" class="highcharts-grid-line" d="M 70 127.5 L 590 127.5" opacity="1"></path><path fill="none" stroke="#e6e6e6" stroke-width="1" stroke-dasharray="none" data-z-index="1" class="highcharts-grid-line" d="M 70 60.5 L 590 60.5" opacity="1"></path></g><rect fill="none" class="highcharts-plot-border" data-z-index="1" x="70" y="61" width="520" height="265" aria-hidden="true"></rect><g class="highcharts-axis highcharts-xaxis" data-z-index="2" aria-hidden="true"><path fill="none" class="highcharts-axis-line" stroke="#ccd6eb" stroke-width="1" data-z-index="7" d="M 70 326.5 L 590 326.5"></path></g><g class="highcharts-axis highcharts-yaxis" data-z-index="2" aria-hidden="true"><text x="24.1328125" data-z-index="7" text-anchor="middle" transform="translate(0,0) rotate(270 24.1328125 193.5)" class="highcharts-axis-title" style="color: rgb(102, 102, 102); fill: rgb(102, 102, 102);" y="193.5">CSM Released</text><path fill="none" class="highcharts-axis-line" data-z-index="7" d="M 70 61 L 70 326"></path></g><g class="highcharts-series-group" data-z-index="3" aria-hidden="false"><g class="highcharts-series highcharts-series-0 highcharts-area-series highcharts-color-0" data-z-index="0.1" opacity="1" transform="translate(70,61) scale(1 1)" clip-path="url(#highcharts-6977d5j-39-)" aria-hidden="true"><path fill="rgb(124,181,236)" fill-opacity="0.75" d="M 43.333333333333 238.5 L 130 176.225 L 216.66666666666 130.857 L 303.33333333333 92.326 L 390 37.629999999999995 L 476.66666666666 27.82499999999999 L 476.66666666666 132.5 L 390 132.5 L 303.33333333333 173.151 L 216.66666666666 192.602 L 130 212 L 43.333333333333 238.5 Z" class="highcharts-area" data-z-index="0"></path><path fill="none" d="M 43.333333333333 238.5 L 130 176.225 L 216.66666666666 130.857 L 303.33333333333 92.326 L 390 37.629999999999995 L 476.66666666666 27.82499999999999" class="highcharts-graph" data-z-index="1" stroke="#666666" stroke-width="1" stroke-linejoin="round" stroke-linecap="round"></path></g><g class="highcharts-markers highcharts-series-0 highcharts-area-series highcharts-color-0" data-z-index="0.1" opacity="1" transform="translate(70,61) scale(1 1)" clip-path="none" aria-hidden="false" role="region" tabindex="-1" aria-label="LP Rewards, series 1 of 4 with 6 data points." style="outline: none;"><path fill="#7cb5ec" d="M 43 243 A 4 4 0 1 1 43.00399999933334 242.99999800000018 Z" stroke="#666666" stroke-width="1" opacity="1" class="highcharts-point highcharts-color-0" tabindex="-1" role="img" aria-label="Genesis, 0 millions. LP Rewards." style="outline: none;"></path><path fill="#7cb5ec" d="M 130 180 A 4 4 0 1 1 130.00399999933333 179.99999800000018 Z" stroke="#666666" stroke-width="1" opacity="1" class="highcharts-point highcharts-color-0" tabindex="-1" role="img" aria-label="Year1, 13.5 millions. LP Rewards." style="outline: none;"></path><path fill="#7cb5ec" d="M 216 135 A 4 4 0 1 1 216.00399999933333 134.99999800000018 Z" stroke="#666666" stroke-width="1" opacity="1" class="highcharts-point highcharts-color-0" tabindex="-1" role="img" aria-label="Year2, 23.3 millions. LP Rewards." style="outline: none;"></path><path fill="#7cb5ec" d="M 303 96 A 4 4 0 1 1 303.00399999933336 95.99999800000016 Z" stroke="#666666" stroke-width="1" opacity="1" class="highcharts-point highcharts-color-0" tabindex="-1" role="img" aria-label="Year3, 30.5 millions. LP Rewards." style="outline: none;"></path><path fill="#7cb5ec" d="M 390 42 A 4 4 0 1 1 390.00399999933336 41.99999800000017 Z" stroke="#666666" stroke-width="1" opacity="1" class="highcharts-point highcharts-color-0" tabindex="-1" role="img" aria-label="Year4, 35.8 millions. LP Rewards." style="outline: none;"></path><path fill="#7cb5ec" d="M 476 32 A 4 4 0 1 1 476.00399999933336 31.99999800000017 Z" stroke="#666666" stroke-width="1" opacity="1" class="highcharts-point highcharts-color-0" tabindex="-1" role="img" aria-label="Year5, 39.5 millions. LP Rewards." style="outline: none;"></path></g><g class="highcharts-series highcharts-series-1 highcharts-area-series highcharts-color-1" data-z-index="0.1" opacity="1" transform="translate(70,61) scale(1 1)" clip-path="url(#highcharts-6977d5j-39-)" aria-hidden="true"><path fill="rgb(67,67,72)" fill-opacity="0.75" d="M 43.333333333333 238.5 L 130 212 L 216.66666666666 192.602 L 303.33333333333 173.151 L 390 132.5 L 476.66666666666 132.5 L 476.66666666666 169.6 L 390 169.6 L 303.33333333333 197.8755 L 216.66666666666 204.951 L 130 212 L 43.333333333333 238.5 Z" class="highcharts-area" data-z-index="0"></path><path fill="none" d="M 43.333333333333 238.5 L 130 212 L 216.66666666666 192.602 L 303.33333333333 173.151 L 390 132.5 L 476.66666666666 132.5" class="highcharts-graph" data-z-index="1" stroke="#666666" stroke-width="1" stroke-linejoin="round" stroke-linecap="round"></path></g><g class="highcharts-markers highcharts-series-1 highcharts-area-series highcharts-color-1" data-z-index="0.1" opacity="1" transform="translate(70,61) scale(1 1)" clip-path="none" aria-hidden="false" role="region" tabindex="-1" aria-label="Team &amp; Core Contributors, series 2 of 4 with 6 data points." style="outline: none;"><path fill="#434348" d="M 43 235 L 47 239 L 43 243 L 39 239 Z" stroke="#666666" stroke-width="1" opacity="1" class="highcharts-point highcharts-color-1" tabindex="-1" role="img" aria-label="Genesis, 0 millions. Team &amp; Core Contributors." style="outline: none;"></path><path fill="#434348" d="M 130 208 L 134 212 L 130 216 L 126 212 Z" stroke="#666666" stroke-width="1" opacity="1" class="highcharts-point highcharts-color-1" tabindex="-1" role="img" aria-label="Year1, 0 millions. Team &amp; Core Contributors." style="outline: none;"></path><path fill="#434348" d="M 216 189 L 220 193 L 216 197 L 212 193 Z" stroke="#666666" stroke-width="1" opacity="1" class="highcharts-point highcharts-color-1" tabindex="-1" role="img" aria-label="Year2, 4.66 millions. Team &amp; Core Contributors." style="outline: none;"></path><path fill="#434348" d="M 303 169 L 307 173 L 303 177 L 299 173 Z" stroke="#666666" stroke-width="1" opacity="1" class="highcharts-point highcharts-color-1" tabindex="-1" role="img" aria-label="Year3, 9.33 millions. Team &amp; Core Contributors." style="outline: none;"></path><path fill="#434348" d="M 390 129 L 394 133 L 390 137 L 386 133 Z" stroke="#666666" stroke-width="1" opacity="1" class="highcharts-point highcharts-color-1" tabindex="-1" role="img" aria-label="Year4, 14 millions. Team &amp; Core Contributors." style="outline: none;"></path><path fill="#434348" d="M 476 129 L 480 133 L 476 137 L 472 133 Z" stroke="#666666" stroke-width="1" opacity="1" class="highcharts-point highcharts-color-1" tabindex="-1" role="img" aria-label="Year5, 14 millions. Team &amp; Core Contributors." style="outline: none;"></path></g><g class="highcharts-series highcharts-series-2 highcharts-area-series highcharts-color-2" data-z-index="0.1" opacity="1" transform="translate(70,61) scale(1 1)" clip-path="url(#highcharts-6977d5j-39-)" aria-hidden="true"><path fill="rgb(144,237,125)" fill-opacity="0.75" d="M 43.333333333333 238.5 L 130 212 L 216.66666666666 204.951 L 303.33333333333 197.8755 L 390 169.6 L 476.66666666666 169.6 L 476.66666666666 212 L 390 212 L 303.33333333333 212 L 216.66666666666 212 L 130 212 L 43.333333333333 238.5 Z" class="highcharts-area" data-z-index="0"></path><path fill="none" d="M 43.333333333333 238.5 L 130 212 L 216.66666666666 204.951 L 303.33333333333 197.8755 L 390 169.6 L 476.66666666666 169.6" class="highcharts-graph" data-z-index="1" stroke="#666666" stroke-width="1" stroke-linejoin="round" stroke-linecap="round"></path></g><g class="highcharts-markers highcharts-series-2 highcharts-area-series highcharts-color-2" data-z-index="0.1" opacity="1" transform="translate(70,61) scale(1 1)" clip-path="none" aria-hidden="false" role="region" tabindex="-1" aria-label="Investors, series 3 of 4 with 6 data points." style="outline: none;"><path fill="#90ed7d" d="M 39 235 L 47 235 L 47 243 L 39 243 Z" stroke="#666666" stroke-width="1" opacity="1" class="highcharts-point highcharts-color-2" tabindex="-1" role="img" aria-label="Genesis, 0 millions. Investors." style="outline: none;"></path><path fill="#90ed7d" d="M 126 208 L 134 208 L 134 216 L 126 216 Z" stroke="#666666" stroke-width="1" opacity="1" class="highcharts-point highcharts-color-2" tabindex="-1" role="img" aria-label="Year1, 0 millions. Investors." style="outline: none;"></path><path fill="#90ed7d" d="M 212 201 L 220 201 L 220 209 L 212 209 Z" stroke="#666666" stroke-width="1" opacity="1" class="highcharts-point highcharts-color-2" tabindex="-1" role="img" aria-label="Year2, 2.66 millions. Investors." style="outline: none;"></path><path fill="#90ed7d" d="M 299 194 L 307 194 L 307 202 L 299 202 Z" stroke="#666666" stroke-width="1" opacity="1" class="highcharts-point highcharts-color-2" tabindex="-1" role="img" aria-label="Year3, 5.33 millions. Investors." style="outline: none;"></path><path fill="#90ed7d" d="M 386 166 L 394 166 L 394 174 L 386 174 Z" stroke="#666666" stroke-width="1" opacity="1" class="highcharts-point highcharts-color-2" tabindex="-1" role="img" aria-label="Year4, 16 millions. Investors." style="outline: none;"></path><path fill="#90ed7d" d="M 472 166 L 480 166 L 480 174 L 472 174 Z" stroke="#666666" stroke-width="1" opacity="1" class="highcharts-point highcharts-color-2" tabindex="-1" role="img" aria-label="Year5, 16 millions. Investors." style="outline: none;"></path></g><g class="highcharts-series highcharts-series-3 highcharts-area-series highcharts-color-3" data-z-index="0.1" opacity="1" transform="translate(70,61) scale(1 1)" clip-path="url(#highcharts-6977d5j-39-)" aria-hidden="true"><path fill="rgb(247,163,92)" fill-opacity="0.75" d="M 43.333333333333 238.5 L 130 212 L 216.66666666666 212 L 303.33333333333 212 L 390 212 L 476.66666666666 212 L 476.66666666666 265 L 390 265 L 303.33333333333 265 L 216.66666666666 265 L 130 265 L 43.333333333333 265 Z" class="highcharts-area" data-z-index="0"></path><path fill="none" d="M 43.333333333333 238.5 L 130 212 L 216.66666666666 212 L 303.33333333333 212 L 390 212 L 476.66666666666 212" class="highcharts-graph" data-z-index="1" stroke="#666666" stroke-width="1" stroke-linejoin="round" stroke-linecap="round"></path></g><g class="highcharts-markers highcharts-series-3 highcharts-area-series highcharts-color-3" data-z-index="0.1" opacity="1" transform="translate(70,61) scale(1 1)" clip-path="none" aria-hidden="false" role="region" tabindex="-1" aria-label="Treasury, series 4 of 4 with 6 data points." style="outline: none;"><path fill="#f7a35c" d="M 43 235 L 47 243 L 39 243 Z" stroke="#666666" stroke-width="1" opacity="1" class="highcharts-point highcharts-color-3" tabindex="-1" role="img" aria-label="Genesis, 10 millions. Treasury." style="outline: none;"></path><path fill="#f7a35c" d="M 130 208 L 134 216 L 126 216 Z" stroke="#666666" stroke-width="1" opacity="1" class="highcharts-point highcharts-color-3" tabindex="-1" role="img" aria-label="Year1, 20 millions. Treasury." style="outline: none;"></path><path fill="#f7a35c" d="M 216 208 L 220 216 L 212 216 Z" stroke="#666666" stroke-width="1" opacity="1" class="highcharts-point highcharts-color-3" tabindex="-1" role="img" aria-label="Year2, 20 millions. Treasury." style="outline: none;"></path><path fill="#f7a35c" d="M 303 208 L 307 216 L 299 216 Z" stroke="#666666" stroke-width="1" opacity="1" class="highcharts-point highcharts-color-3" tabindex="-1" role="img" aria-label="Year3, 20 millions. Treasury." style="outline: none;"></path><path fill="#f7a35c" d="M 390 208 L 394 216 L 386 216 Z" stroke="#666666" stroke-width="1" opacity="1" class="highcharts-point highcharts-color-3" tabindex="-1" role="img" aria-label="Year4, 20 millions. Treasury." style="outline: none;"></path><path fill="#f7a35c" d="M 476 208 L 480 216 L 472 216 Z" stroke="#666666" stroke-width="1" opacity="1" class="highcharts-point highcharts-color-3" tabindex="-1" role="img" aria-label="Year5, 20 millions. Treasury." style="outline: none;"></path></g></g><text x="300" text-anchor="middle" class="highcharts-title" data-z-index="4" style="color: rgb(51, 51, 51); font-size: 18px; fill: rgb(51, 51, 51);" y="24" aria-hidden="true">CSM Release Schedule</text><text x="300" text-anchor="middle" class="highcharts-subtitle" data-z-index="4" style="color: rgb(102, 102, 102); fill: rgb(102, 102, 102);" y="46" aria-hidden="true">Source: docs.cashmere.exchange</text><text x="10" text-anchor="start" class="highcharts-caption" data-z-index="4" style="color: rgb(102, 102, 102); fill: rgb(102, 102, 102);" y="397" aria-hidden="true"></text><g class="highcharts-legend highcharts-no-tooltip" data-z-index="7" transform="translate(47,359)" aria-hidden="true"><rect fill="none" class="highcharts-legend-box" rx="0" ry="0" x="0" y="0" width="506" height="26"></rect><g data-z-index="1"><g><g class="highcharts-legend-item highcharts-area-series highcharts-color-0 highcharts-series-0" data-z-index="1" transform="translate(8,3)"><text x="21" text-anchor="start" data-z-index="2" y="15" style="color: rgb(51, 51, 51); cursor: pointer; font-size: 12px; font-weight: bold; fill: rgb(51, 51, 51);">LP Rewards</text><rect x="2" y="4" width="12" height="12" fill="#7cb5ec" rx="6" ry="6" class="highcharts-point" data-z-index="3"></rect></g><g class="highcharts-legend-item highcharts-area-series highcharts-color-1 highcharts-series-1" data-z-index="1" transform="translate(120.203125,3)"><text x="21" y="15" text-anchor="start" data-z-index="2" style="color: rgb(51, 51, 51); cursor: pointer; font-size: 12px; font-weight: bold; fill: rgb(51, 51, 51);">Team &amp; Core Contributors</text><rect x="2" y="4" width="12" height="12" fill="#434348" rx="6" ry="6" class="highcharts-point" data-z-index="3"></rect></g><g class="highcharts-legend-item highcharts-area-series highcharts-color-2 highcharts-series-2" data-z-index="1" transform="translate(323.625,3)"><text x="21" y="15" text-anchor="start" data-z-index="2" style="color: rgb(51, 51, 51); cursor: pointer; font-size: 12px; font-weight: bold; fill: rgb(51, 51, 51);">Investors</text><rect x="2" y="4" width="12" height="12" fill="#90ed7d" rx="6" ry="6" class="highcharts-point" data-z-index="3"></rect></g><g class="highcharts-legend-item highcharts-area-series highcharts-color-3 highcharts-series-3" data-z-index="1" transform="translate(422.1875,3)"><text x="21" y="15" text-anchor="start" data-z-index="2" style="color: rgb(51, 51, 51); cursor: pointer; font-size: 12px; font-weight: bold; fill: rgb(51, 51, 51);">Treasury</text><rect x="2" y="4" width="12" height="12" fill="#f7a35c" rx="6" ry="6" class="highcharts-point" data-z-index="3"></rect></g></g></g></g><g class="highcharts-axis-labels highcharts-xaxis-labels" data-z-index="7" aria-hidden="true"><text x="113.33333333333" text-anchor="middle" transform="translate(0,0)" style="color: rgb(102, 102, 102); cursor: default; font-size: 11px; fill: rgb(102, 102, 102);" y="345" opacity="1">Genesis</text><text x="200" text-anchor="middle" transform="translate(0,0)" style="color: rgb(102, 102, 102); cursor: default; font-size: 11px; fill: rgb(102, 102, 102);" y="345" opacity="1">Year1</text><text x="286.66666666666" text-anchor="middle" transform="translate(0,0)" style="color: rgb(102, 102, 102); cursor: default; font-size: 11px; fill: rgb(102, 102, 102);" y="345" opacity="1">Year2</text><text x="373.33333333333" text-anchor="middle" transform="translate(0,0)" style="color: rgb(102, 102, 102); cursor: default; font-size: 11px; fill: rgb(102, 102, 102);" y="345" opacity="1">Year3</text><text x="460" text-anchor="middle" transform="translate(0,0)" style="color: rgb(102, 102, 102); cursor: default; font-size: 11px; fill: rgb(102, 102, 102);" y="345" opacity="1">Year4</text><text x="546.66666666666" text-anchor="middle" transform="translate(0,0)" style="color: rgb(102, 102, 102); cursor: default; font-size: 11px; fill: rgb(102, 102, 102);" y="345" opacity="1">Year5</text></g><g class="highcharts-axis-labels highcharts-yaxis-labels" data-z-index="7" aria-hidden="true"><text x="55" text-anchor="end" transform="translate(0,0)" style="color: rgb(102, 102, 102); cursor: default; font-size: 11px; fill: rgb(102, 102, 102);" y="331" opacity="1">0</text><text x="55" text-anchor="end" transform="translate(0,0)" style="color: rgb(102, 102, 102); cursor: default; font-size: 11px; fill: rgb(102, 102, 102);" y="264" opacity="1">25</text><text x="55" text-anchor="end" transform="translate(0,0)" style="color: rgb(102, 102, 102); cursor: default; font-size: 11px; fill: rgb(102, 102, 102);" y="198" opacity="1">50</text><text x="55" text-anchor="end" transform="translate(0,0)" style="color: rgb(102, 102, 102); cursor: default; font-size: 11px; fill: rgb(102, 102, 102);" y="132" opacity="1">75</text><text x="55" text-anchor="end" transform="translate(0,0)" style="color: rgb(102, 102, 102); cursor: default; font-size: 11px; fill: rgb(102, 102, 102);" y="66" opacity="1">100</text></g><text x="590" class="highcharts-credits" text-anchor="end" data-z-index="8" y="395" style="cursor: pointer; color: rgb(153, 153, 153); font-size: 9px; fill: rgb(153, 153, 153);" aria-label="Chart credits: Highcharts.com" aria-hidden="false">Highcharts.com</text></svg>