<?xml version="1.0" standalone="no"?><!DOCTYPE svg PUBLIC "-//W3C//DTD SVG 1.1//EN" "http://www.w3.org/Graphics/SVG/1.1/DTD/svg11.dtd"><svg xmlns:xlink="http://www.w3.org/1999/xlink" version="1.1" class="highcharts-root" style="font-family: &quot;Lucida Grande&quot;, &quot;Lucida Sans Unicode&quot;, Arial, Helvetica, sans-serif; font-size: 12px;" xmlns="http://www.w3.org/2000/svg" width="600" height="400" viewBox="0 0 600 400" aria-label="Interactive chart" aria-hidden="false"><desc aria-hidden="true">Created with Highcharts 10.2.0</desc><defs aria-hidden="true"><clipPath id="highcharts-c0zo6y4-38-"><rect x="0" y="0" width="520" height="235" fill="none"></rect></clipPath><clipPath id="highcharts-c0zo6y4-45-"><rect x="0" y="0" width="520" height="235" fill="none"></rect></clipPath></defs><rect fill="#ffffff" class="highcharts-background" x="0" y="0" width="600" height="400" rx="0" ry="0" aria-hidden="true"></rect><rect fill="none" class="highcharts-plot-background" x="70" y="61" width="520" height="235" aria-hidden="true"></rect><g class="highcharts-grid highcharts-xaxis-grid" data-z-index="1" aria-hidden="true"><path fill="none" stroke-dasharray="none" data-z-index="1" class="highcharts-grid-line" d="M 112.5 61 L 112.5 296" opacity="1"></path><path fill="none" stroke-dasharray="none" data-z-index="1" class="highcharts-grid-line" d="M 199.5 61 L 199.5 296" opacity="1"></path><path fill="none" stroke-dasharray="none" data-z-index="1" class="highcharts-grid-line" d="M 286.5 61 L 286.5 296" opacity="1"></path><path fill="none" stroke-dasharray="none" data-z-index="1" class="highcharts-grid-line" d="M 372.5 61 L 372.5 296" opacity="1"></path><path fill="none" stroke-dasharray="none" data-z-index="1" class="highcharts-grid-line" d="M 459.5 61 L 459.5 296" opacity="1"></path><path fill="none" stroke-dasharray="none" data-z-index="1" class="highcharts-grid-line" d="M 546.5 61 L 546.5 296" opacity="1"></path></g><g class="highcharts-grid highcharts-yaxis-grid" data-z-index="1" aria-hidden="true"><path fill="none" stroke="#e6e6e6" stroke-width="1" stroke-dasharray="none" data-z-index="1" class="highcharts-grid-line" d="M 70 296.5 L 590 296.5" opacity="1"></path><path fill="none" stroke="#e6e6e6" stroke-width="1" stroke-dasharray="none" data-z-index="1" class="highcharts-grid-line" d="M 70 237.5 L 590 237.5" opacity="1"></path><path fill="none" stroke="#e6e6e6" stroke-width="1" stroke-dasharray="none" data-z-index="1" class="highcharts-grid-line" d="M 70 179.5 L 590 179.5" opacity="1"></path><path fill="none" stroke="#e6e6e6" stroke-width="1" stroke-dasharray="none" data-z-index="1" class="highcharts-grid-line" d="M 70 120.5 L 590 120.5" opacity="1"></path><path fill="none" stroke="#e6e6e6" stroke-width="1" stroke-dasharray="none" data-z-index="1" class="highcharts-grid-line" d="M 70 60.5 L 590 60.5" opacity="1"></path></g><rect fill="none" class="highcharts-plot-border" data-z-index="1" x="70" y="61" width="520" height="235" aria-hidden="true"></rect><g class="highcharts-axis highcharts-xaxis" data-z-index="2" aria-hidden="true"><path fill="none" class="highcharts-axis-line" stroke="#ccd6eb" stroke-width="1" data-z-index="7" d="M 70 296.5 L 590 296.5"></path></g><g class="highcharts-axis highcharts-yaxis" data-z-index="2" aria-hidden="true"><text x="24.1328125" data-z-index="7" text-anchor="middle" transform="translate(0,0) rotate(270 24.1328125 178.5)" class="highcharts-axis-title" style="color: rgb(102, 102, 102); fill: rgb(102, 102, 102);" y="178.5">CSM Released</text><path fill="none" class="highcharts-axis-line" data-z-index="7" d="M 70 61 L 70 296"></path></g><g class="highcharts-series-group" data-z-index="3" aria-hidden="false"><g class="highcharts-series highcharts-series-0 highcharts-area-series highcharts-color-0" data-z-index="0.1" opacity="1" transform="translate(70,61) scale(1 1)" clip-path="url(#highcharts-c0zo6y4-45-)" aria-hidden="true"><path fill="rgb(124,181,236)" fill-opacity="0.75" d="M 43.333333333333 164.5 L 130 132.775 L 216.66666666666 96.0445 L 303.33333333333 67.774 L 390 33.370000000000005 L 476.66666666666 24.67500000000001 L 476.66666666666 27.025000000000006 L 390 35.72 L 303.33333333333 70.124 L 216.66666666666 98.3945 L 130 132.775 L 43.333333333333 164.5 Z" class="highcharts-area" data-z-index="0"></path><path fill="none" d="M 43.333333333333 164.5 L 130 132.775 L 216.66666666666 96.0445 L 303.33333333333 67.774 L 390 33.370000000000005 L 476.66666666666 24.67500000000001" class="highcharts-graph" data-z-index="1" stroke="#666666" stroke-width="1" stroke-linejoin="round" stroke-linecap="round"></path></g><g class="highcharts-markers highcharts-series-0 highcharts-area-series highcharts-color-0" data-z-index="0.1" opacity="1" transform="translate(70,61) scale(1 1)" clip-path="none" aria-hidden="false" role="region" tabindex="-1" aria-label="Early Adopters, series 1 of 5 with 6 data points." style="outline: none;"><path fill="#7cb5ec" d="M 43 169 A 4 4 0 1 1 43.00399999933334 168.99999800000018 Z" stroke="#666666" stroke-width="1" opacity="1" class="highcharts-point highcharts-color-0" tabindex="-1" role="img" aria-label="Genesis, 0 millions. Early Adopters." style="outline: none;"></path><path fill="#7cb5ec" d="M 130 137 A 4 4 0 1 1 130.00399999933333 136.99999800000018 Z" stroke="#666666" stroke-width="1" opacity="1" class="highcharts-point highcharts-color-0" tabindex="-1" role="img" aria-label="Year1, 0 millions. Early Adopters." style="outline: none;"></path><path fill="#7cb5ec" d="M 216 100 A 4 4 0 1 1 216.00399999933333 99.99999800000016 Z" stroke="#666666" stroke-width="1" opacity="1" class="highcharts-point highcharts-color-0" tabindex="-1" role="img" aria-label="Year2, 1 millions. Early Adopters." style="outline: none;"></path><path fill="#7cb5ec" d="M 303 72 A 4 4 0 1 1 303.00399999933336 71.99999800000016 Z" stroke="#666666" stroke-width="1" opacity="1" class="highcharts-point highcharts-color-0" tabindex="-1" role="img" aria-label="Year3, 1 millions. Early Adopters." style="outline: none;"></path><path fill="#7cb5ec" d="M 390 37 A 4 4 0 1 1 390.00399999933336 36.99999800000017 Z" stroke="#666666" stroke-width="1" opacity="1" class="highcharts-point highcharts-color-0" tabindex="-1" role="img" aria-label="Year4, 1 millions. Early Adopters." style="outline: none;"></path><path fill="#7cb5ec" d="M 476 29 A 4 4 0 1 1 476.00399999933336 28.99999800000017 Z" stroke="#666666" stroke-width="1" opacity="1" class="highcharts-point highcharts-color-0" tabindex="-1" role="img" aria-label="Year5, 1 millions. Early Adopters." style="outline: none;"></path></g><g class="highcharts-series highcharts-series-1 highcharts-area-series highcharts-color-1" data-z-index="0.1" opacity="1" transform="translate(70,61) scale(1 1)" clip-path="url(#highcharts-c0zo6y4-45-)" aria-hidden="true"><path fill="rgb(67,67,72)" fill-opacity="0.75" d="M 43.333333333333 164.5 L 130 132.775 L 216.66666666666 98.3945 L 303.33333333333 70.124 L 390 35.72 L 476.66666666666 27.025000000000006 L 476.66666666666 119.85 L 390 119.85 L 303.33333333333 141.799 L 216.66666666666 153.1495 L 130 164.5 L 43.333333333333 164.5 Z" class="highcharts-area" data-z-index="0"></path><path fill="none" d="M 43.333333333333 164.5 L 130 132.775 L 216.66666666666 98.3945 L 303.33333333333 70.124 L 390 35.72 L 476.66666666666 27.025000000000006" class="highcharts-graph" data-z-index="1" stroke="#666666" stroke-width="1" stroke-linejoin="round" stroke-linecap="round"></path></g><g class="highcharts-markers highcharts-series-1 highcharts-area-series highcharts-color-1" data-z-index="0.1" opacity="1" transform="translate(70,61) scale(1 1)" clip-path="none" aria-hidden="false" role="region" tabindex="-1" aria-label="LP Rewards, series 2 of 5 with 6 data points." style="outline: none;"><path fill="#434348" d="M 43 161 L 47 165 L 43 169 L 39 165 Z" stroke="#666666" stroke-width="1" opacity="1" class="highcharts-point highcharts-color-1" tabindex="-1" role="img" aria-label="Genesis, 0 millions. LP Rewards." style="outline: none;"></path><path fill="#434348" d="M 130 129 L 134 133 L 130 137 L 126 133 Z" stroke="#666666" stroke-width="1" opacity="1" class="highcharts-point highcharts-color-1" tabindex="-1" role="img" aria-label="Year1, 13.5 millions. LP Rewards." style="outline: none;"></path><path fill="#434348" d="M 216 94 L 220 98 L 216 102 L 212 98 Z" stroke="#666666" stroke-width="1" opacity="1" class="highcharts-point highcharts-color-1" tabindex="-1" role="img" aria-label="Year2, 23.3 millions. LP Rewards." style="outline: none;"></path><path fill="#434348" d="M 303 66 L 307 70 L 303 74 L 299 70 Z" stroke="#666666" stroke-width="1" opacity="1" class="highcharts-point highcharts-color-1" tabindex="-1" role="img" aria-label="Year3, 30.5 millions. LP Rewards." style="outline: none;"></path><path fill="#434348" d="M 390 32 L 394 36 L 390 40 L 386 36 Z" stroke="#666666" stroke-width="1" opacity="1" class="highcharts-point highcharts-color-1" tabindex="-1" role="img" aria-label="Year4, 35.8 millions. LP Rewards." style="outline: none;"></path><path fill="#434348" d="M 476 23 L 480 27 L 476 31 L 472 27 Z" stroke="#666666" stroke-width="1" opacity="1" class="highcharts-point highcharts-color-1" tabindex="-1" role="img" aria-label="Year5, 39.5 millions. LP Rewards." style="outline: none;"></path></g><g class="highcharts-series highcharts-series-2 highcharts-area-series highcharts-color-2" data-z-index="0.1" opacity="1" transform="translate(70,61) scale(1 1)" clip-path="url(#highcharts-c0zo6y4-45-)" aria-hidden="true"><path fill="rgb(144,237,125)" fill-opacity="0.75" d="M 43.333333333333 164.5 L 130 164.5 L 216.66666666666 153.1495 L 303.33333333333 141.799 L 390 119.85 L 476.66666666666 119.85 L 476.66666666666 143.35 L 390 143.35 L 303.33333333333 157.45 L 216.66666666666 160.975 L 130 164.5 L 43.333333333333 164.5 Z" class="highcharts-area" data-z-index="0"></path><path fill="none" d="M 43.333333333333 164.5 L 130 164.5 L 216.66666666666 153.1495 L 303.33333333333 141.799 L 390 119.85 L 476.66666666666 119.85" class="highcharts-graph" data-z-index="1" stroke="#666666" stroke-width="1" stroke-linejoin="round" stroke-linecap="round"></path></g><g class="highcharts-markers highcharts-series-2 highcharts-area-series highcharts-color-2" data-z-index="0.1" opacity="1" transform="translate(70,61) scale(1 1)" clip-path="none" aria-hidden="false" role="region" tabindex="-1" aria-label="Team &amp; Core Contributors, series 3 of 5 with 6 data points." style="outline: none;"><path fill="#90ed7d" d="M 39 161 L 47 161 L 47 169 L 39 169 Z" stroke="#666666" stroke-width="1" opacity="1" class="highcharts-point highcharts-color-2" tabindex="-1" role="img" aria-label="Genesis, 0 millions. Team &amp; Core Contributors." style="outline: none;"></path><path fill="#90ed7d" d="M 126 161 L 134 161 L 134 169 L 126 169 Z" stroke="#666666" stroke-width="1" opacity="1" class="highcharts-point highcharts-color-2" tabindex="-1" role="img" aria-label="Year1, 0 millions. Team &amp; Core Contributors." style="outline: none;"></path><path fill="#90ed7d" d="M 212 149 L 220 149 L 220 157 L 212 157 Z" stroke="#666666" stroke-width="1" opacity="1" class="highcharts-point highcharts-color-2" tabindex="-1" role="img" aria-label="Year2, 3.33 millions. Team &amp; Core Contributors." style="outline: none;"></path><path fill="#90ed7d" d="M 299 138 L 307 138 L 307 146 L 299 146 Z" stroke="#666666" stroke-width="1" opacity="1" class="highcharts-point highcharts-color-2" tabindex="-1" role="img" aria-label="Year3, 6.66 millions. Team &amp; Core Contributors." style="outline: none;"></path><path fill="#90ed7d" d="M 386 116 L 394 116 L 394 124 L 386 124 Z" stroke="#666666" stroke-width="1" opacity="1" class="highcharts-point highcharts-color-2" tabindex="-1" role="img" aria-label="Year4, 10 millions. Team &amp; Core Contributors." style="outline: none;"></path><path fill="#90ed7d" d="M 472 116 L 480 116 L 480 124 L 472 124 Z" stroke="#666666" stroke-width="1" opacity="1" class="highcharts-point highcharts-color-2" tabindex="-1" role="img" aria-label="Year5, 10 millions. Team &amp; Core Contributors." style="outline: none;"></path></g><g class="highcharts-series highcharts-series-3 highcharts-area-series highcharts-color-3" data-z-index="0.1" opacity="1" transform="translate(70,61) scale(1 1)" clip-path="url(#highcharts-c0zo6y4-45-)" aria-hidden="true"><path fill="rgb(247,163,92)" fill-opacity="0.75" d="M 43.333333333333 164.5 L 130 164.5 L 216.66666666666 160.975 L 303.33333333333 157.45 L 390 143.35 L 476.66666666666 143.35 L 476.66666666666 164.5 L 390 164.5 L 303.33333333333 164.5 L 216.66666666666 164.5 L 130 164.5 L 43.333333333333 164.5 Z" class="highcharts-area" data-z-index="0"></path><path fill="none" d="M 43.333333333333 164.5 L 130 164.5 L 216.66666666666 160.975 L 303.33333333333 157.45 L 390 143.35 L 476.66666666666 143.35" class="highcharts-graph" data-z-index="1" stroke="#666666" stroke-width="1" stroke-linejoin="round" stroke-linecap="round"></path></g><g class="highcharts-markers highcharts-series-3 highcharts-area-series highcharts-color-3" data-z-index="0.1" opacity="1" transform="translate(70,61) scale(1 1)" clip-path="none" aria-hidden="false" role="region" tabindex="-1" aria-label="Investors, series 4 of 5 with 6 data points." style="outline: none;"><path fill="#f7a35c" d="M 43 161 L 47 169 L 39 169 Z" stroke="#666666" stroke-width="1" opacity="1" class="highcharts-point highcharts-color-3" tabindex="-1" role="img" aria-label="Genesis, 0 millions. Investors." style="outline: none;"></path><path fill="#f7a35c" d="M 130 161 L 134 169 L 126 169 Z" stroke="#666666" stroke-width="1" opacity="1" class="highcharts-point highcharts-color-3" tabindex="-1" role="img" aria-label="Year1, 0 millions. Investors." style="outline: none;"></path><path fill="#f7a35c" d="M 216 157 L 220 165 L 212 165 Z" stroke="#666666" stroke-width="1" opacity="1" class="highcharts-point highcharts-color-3" tabindex="-1" role="img" aria-label="Year2, 1.5 millions. Investors." style="outline: none;"></path><path fill="#f7a35c" d="M 303 153 L 307 161 L 299 161 Z" stroke="#666666" stroke-width="1" opacity="1" class="highcharts-point highcharts-color-3" tabindex="-1" role="img" aria-label="Year3, 3 millions. Investors." style="outline: none;"></path><path fill="#f7a35c" d="M 390 139 L 394 147 L 386 147 Z" stroke="#666666" stroke-width="1" opacity="1" class="highcharts-point highcharts-color-3" tabindex="-1" role="img" aria-label="Year4, 9 millions. Investors." style="outline: none;"></path><path fill="#f7a35c" d="M 476 139 L 480 147 L 472 147 Z" stroke="#666666" stroke-width="1" opacity="1" class="highcharts-point highcharts-color-3" tabindex="-1" role="img" aria-label="Year5, 9 millions. Investors." style="outline: none;"></path></g><g class="highcharts-series highcharts-series-4 highcharts-area-series highcharts-color-4" data-z-index="0.1" opacity="1" transform="translate(70,61) scale(1 1)" clip-path="url(#highcharts-c0zo6y4-45-)" aria-hidden="true"><path fill="rgb(128,133,233)" fill-opacity="0.75" d="M 43.333333333333 164.5 L 130 164.5 L 216.66666666666 164.5 L 303.33333333333 164.5 L 390 164.5 L 476.66666666666 164.5 L 476.66666666666 235 L 390 235 L 303.33333333333 235 L 216.66666666666 235 L 130 235 L 43.333333333333 235 Z" class="highcharts-area" data-z-index="0"></path><path fill="none" d="M 43.333333333333 164.5 L 130 164.5 L 216.66666666666 164.5 L 303.33333333333 164.5 L 390 164.5 L 476.66666666666 164.5" class="highcharts-graph" data-z-index="1" stroke="#666666" stroke-width="1" stroke-linejoin="round" stroke-linecap="round"></path></g><g class="highcharts-markers highcharts-series-4 highcharts-area-series highcharts-color-4" data-z-index="0.1" opacity="1" transform="translate(70,61) scale(1 1)" clip-path="none" aria-hidden="false" role="region" tabindex="-1" aria-label="Treasury, series 5 of 5 with 6 data points." style="outline: none;"><path fill="#8085e9" d="M 39 161 L 47 161 L 43 169 Z" stroke="#666666" stroke-width="1" opacity="1" class="highcharts-point highcharts-color-4" tabindex="-1" role="img" aria-label="Genesis, 30 millions. Treasury." style="outline: none;"></path><path fill="#8085e9" d="M 126 161 L 134 161 L 130 169 Z" stroke="#666666" stroke-width="1" opacity="1" class="highcharts-point highcharts-color-4" tabindex="-1" role="img" aria-label="Year1, 30 millions. Treasury." style="outline: none;"></path><path fill="#8085e9" d="M 212 161 L 220 161 L 216 169 Z" stroke="#666666" stroke-width="1" opacity="1" class="highcharts-point highcharts-color-4" tabindex="-1" role="img" aria-label="Year2, 30 millions. Treasury." style="outline: none;"></path><path fill="#8085e9" d="M 299 161 L 307 161 L 303 169 Z" stroke="#666666" stroke-width="1" opacity="1" class="highcharts-point highcharts-color-4" tabindex="-1" role="img" aria-label="Year3, 30 millions. Treasury." style="outline: none;"></path><path fill="#8085e9" d="M 386 161 L 394 161 L 390 169 Z" stroke="#666666" stroke-width="1" opacity="1" class="highcharts-point highcharts-color-4" tabindex="-1" role="img" aria-label="Year4, 30 millions. Treasury." style="outline: none;"></path><path fill="#8085e9" d="M 472 161 L 480 161 L 476 169 Z" stroke="#666666" stroke-width="1" opacity="1" class="highcharts-point highcharts-color-4" tabindex="-1" role="img" aria-label="Year5, 30 millions. Treasury." style="outline: none;"></path></g></g><text x="300" text-anchor="middle" class="highcharts-title" data-z-index="4" style="color: rgb(51, 51, 51); font-size: 18px; fill: rgb(51, 51, 51);" y="24" aria-hidden="true">CSM Release Schedule</text><text x="300" text-anchor="middle" class="highcharts-subtitle" data-z-index="4" style="color: rgb(102, 102, 102); fill: rgb(102, 102, 102);" y="46" aria-hidden="true">Source: docs.cashmere.exchange</text><text x="10" text-anchor="start" class="highcharts-caption" data-z-index="4" style="color: rgb(102, 102, 102); fill: rgb(102, 102, 102);" y="397" aria-hidden="true"></text><g class="highcharts-legend highcharts-no-tooltip" data-z-index="7" transform="translate(99,329)" aria-hidden="true"><rect fill="none" class="highcharts-legend-box" rx="0" ry="0" x="0" y="0" width="402" height="56"></rect><g data-z-index="1"><g><g class="highcharts-legend-item highcharts-area-series highcharts-color-0 highcharts-series-0" data-z-index="1" transform="translate(8,3)"><text x="21" text-anchor="start" data-z-index="2" y="15" style="color: rgb(51, 51, 51); cursor: pointer; font-size: 12px; font-weight: bold; fill: rgb(51, 51, 51);">Early Adopters</text><rect x="2" y="4" width="12" height="12" fill="#7cb5ec" rx="6" ry="6" class="highcharts-point" data-z-index="3"></rect></g><g class="highcharts-legend-item highcharts-area-series highcharts-color-1 highcharts-series-1" data-z-index="1" transform="translate(211.421875,3)"><text x="21" y="15" text-anchor="start" data-z-index="2" style="color: rgb(51, 51, 51); cursor: pointer; font-size: 12px; font-weight: bold; fill: rgb(51, 51, 51);">LP Rewards</text><rect x="2" y="4" width="12" height="12" fill="#434348" rx="6" ry="6" class="highcharts-point" data-z-index="3"></rect></g><g class="highcharts-legend-item highcharts-area-series highcharts-color-2 highcharts-series-2" data-z-index="1" transform="translate(8,18)"><text x="21" y="15" text-anchor="start" data-z-index="2" style="color: rgb(51, 51, 51); cursor: pointer; font-size: 12px; font-weight: bold; fill: rgb(51, 51, 51);">Team &amp; Core Contributors</text><rect x="2" y="4" width="12" height="12" fill="#90ed7d" rx="6" ry="6" class="highcharts-point" data-z-index="3"></rect></g><g class="highcharts-legend-item highcharts-area-series highcharts-color-3 highcharts-series-3" data-z-index="1" transform="translate(211.421875,18)"><text x="21" y="15" text-anchor="start" data-z-index="2" style="color: rgb(51, 51, 51); cursor: pointer; font-size: 12px; font-weight: bold; fill: rgb(51, 51, 51);">Investors</text><rect x="2" y="4" width="12" height="12" fill="#f7a35c" rx="6" ry="6" class="highcharts-point" data-z-index="3"></rect></g><g class="highcharts-legend-item highcharts-area-series highcharts-color-4 highcharts-series-4" data-z-index="1" transform="translate(8,33)"><text x="21" y="15" text-anchor="start" data-z-index="2" style="color: rgb(51, 51, 51); cursor: pointer; font-size: 12px; font-weight: bold; fill: rgb(51, 51, 51);">Treasury</text><rect x="2" y="4" width="12" height="12" fill="#8085e9" rx="6" ry="6" class="highcharts-point" data-z-index="3"></rect></g></g></g></g><g class="highcharts-axis-labels highcharts-xaxis-labels" data-z-index="7" aria-hidden="true"><text x="113.33333333333" text-anchor="middle" transform="translate(0,0)" style="color: rgb(102, 102, 102); cursor: default; font-size: 11px; fill: rgb(102, 102, 102);" y="315" opacity="1">Genesis</text><text x="200" text-anchor="middle" transform="translate(0,0)" style="color: rgb(102, 102, 102); cursor: default; font-size: 11px; fill: rgb(102, 102, 102);" y="315" opacity="1">Year1</text><text x="286.66666666666" text-anchor="middle" transform="translate(0,0)" style="color: rgb(102, 102, 102); cursor: default; font-size: 11px; fill: rgb(102, 102, 102);" y="315" opacity="1">Year2</text><text x="373.33333333333" text-anchor="middle" transform="translate(0,0)" style="color: rgb(102, 102, 102); cursor: default; font-size: 11px; fill: rgb(102, 102, 102);" y="315" opacity="1">Year3</text><text x="460" text-anchor="middle" transform="translate(0,0)" style="color: rgb(102, 102, 102); cursor: default; font-size: 11px; fill: rgb(102, 102, 102);" y="315" opacity="1">Year4</text><text x="546.66666666666" text-anchor="middle" transform="translate(0,0)" style="color: rgb(102, 102, 102); cursor: default; font-size: 11px; fill: rgb(102, 102, 102);" y="315" opacity="1">Year5</text></g><g class="highcharts-axis-labels highcharts-yaxis-labels" data-z-index="7" aria-hidden="true"><text x="55" text-anchor="end" transform="translate(0,0)" style="color: rgb(102, 102, 102); cursor: default; font-size: 11px; fill: rgb(102, 102, 102);" y="301" opacity="1">0</text><text x="55" text-anchor="end" transform="translate(0,0)" style="color: rgb(102, 102, 102); cursor: default; font-size: 11px; fill: rgb(102, 102, 102);" y="242" opacity="1">25</text><text x="55" text-anchor="end" transform="translate(0,0)" style="color: rgb(102, 102, 102); cursor: default; font-size: 11px; fill: rgb(102, 102, 102);" y="183" opacity="1">50</text><text x="55" text-anchor="end" transform="translate(0,0)" style="color: rgb(102, 102, 102); cursor: default; font-size: 11px; fill: rgb(102, 102, 102);" y="124" opacity="1">75</text><text x="55" text-anchor="end" transform="translate(0,0)" style="color: rgb(102, 102, 102); cursor: default; font-size: 11px; fill: rgb(102, 102, 102);" y="66" opacity="1">100</text></g><text x="590" class="highcharts-credits" text-anchor="end" data-z-index="8" y="395" style="cursor: pointer; color: rgb(153, 153, 153); font-size: 9px; fill: rgb(153, 153, 153);" aria-label="Chart credits: Highcharts.com" aria-hidden="false">Highcharts.com</text></svg>